<svg width="22" height="23" viewBox="0 0 22 23" fill="none" xmlns="http://www.w3.org/2000/svg">
<path d="M4.39998 9.2V12.65C4.39997 12.8289 4.36004 13.0053 4.28338 13.1652L2.88197 16.1H19.1224L17.7188 13.1652C17.6414 13.0055 17.6007 12.8291 17.6 12.65V9.2C17.6 7.37001 16.9047 5.61496 15.6669 4.32096C14.4292 3.02696 12.7504 2.3 11 2.3C9.24957 2.3 7.57082 3.02696 6.33308 4.32096C5.09534 5.61496 4.39998 7.37001 4.39998 9.2ZM6.59999 18.4H1.09997C0.912385 18.4 0.727921 18.3498 0.564106 18.2543C0.40029 18.1588 0.262565 18.021 0.164021 17.8541C0.0654761 17.6873 0.00938543 17.4968 0.00107914 17.3009C-0.00722716 17.105 0.0325269 16.9101 0.116564 16.7348L2.19997 12.3786V9.2C2.19997 6.76001 3.12711 4.41995 4.77744 2.69462C6.42777 0.969283 8.66609 0 11 0C13.3339 0 15.5722 0.969283 17.2226 2.69462C18.8729 4.41995 19.8 6.76001 19.8 9.2V12.3786L21.8834 16.7348C21.9675 16.9101 22.0072 17.105 21.9989 17.3009C21.9906 17.4968 21.9345 17.6873 21.836 17.8541C21.7374 18.021 21.5997 18.1588 21.4359 18.2543C21.2721 18.3498 21.0876 18.4 20.9 18.4H15.4C15.4 19.62 14.9364 20.79 14.1113 21.6527C13.2861 22.5154 12.167 23 11 23C9.83304 23 8.71388 22.5154 7.88872 21.6527C7.06356 20.79 6.59999 19.62 6.59999 18.4ZM13.2 18.4H8.79999C8.79999 19.01 9.03178 19.595 9.44436 20.0263C9.85694 20.4577 10.4165 20.7 11 20.7C11.5835 20.7 12.1431 20.4577 12.5556 20.0263C12.9682 19.595 13.2 19.01 13.2 18.4Z" fill="black"/>
</svg>
