<svg width="24" height="22" viewBox="0 0 24 22" fill="none" xmlns="http://www.w3.org/2000/svg">
<path d="M22.1774 20.8582C22.1771 20.0767 22.0688 19.3209 21.7488 18.6326C21.4246 17.9354 20.8977 17.3391 20.1126 16.8602C18.5725 15.9209 16.0324 15.431 12 15.431C7.96755 15.431 5.42752 15.9209 3.88739 16.8602C3.10226 17.3391 2.57538 17.9354 2.25121 18.6326C1.93064 19.322 1.82258 20.0792 1.82258 20.8621C1.82258 21.0279 1.75543 21.1891 1.6325 21.3096C1.50923 21.4304 1.33992 21.5 1.16129 21.5C0.982663 21.5 0.813349 21.4304 0.690077 21.3096C0.567151 21.1891 0.5 21.0279 0.5 20.8621C0.5 19.1654 0.991782 17.9305 1.75399 17.0156C2.52306 16.0925 3.59826 15.4587 4.8194 15.0275C7.27686 14.1597 10.191 14.1552 12 14.1552C13.809 14.1552 16.7231 14.1597 19.1806 15.0275C20.4017 15.4587 21.4769 16.0925 22.246 17.0156C23.0076 17.9298 23.4993 19.1635 23.5 20.8583C23.497 21.0243 23.4285 21.1847 23.3055 21.3052C23.1829 21.4253 23.0159 21.496 22.8387 21.4999C22.6615 21.496 22.4945 21.4253 22.3719 21.3052C22.2489 21.1847 22.1804 21.0242 22.1774 20.8582ZM22.1774 20.8582C22.1774 20.8595 22.1774 20.8608 22.1774 20.8621H21.6774L22.1774 20.8554C22.1774 20.8563 22.1774 20.8572 22.1774 20.8582ZM12 10.8793C10.9482 10.8793 9.92092 10.5737 9.04799 10.0021C8.17518 9.43065 7.49646 8.61946 7.09608 7.67231C6.69576 6.72528 6.59118 5.6838 6.79512 4.67913C6.99908 3.67439 7.50278 2.75006 8.24416 2.02359C8.98565 1.29702 9.93159 0.801102 10.9629 0.600092C11.9942 0.399074 13.0631 0.50233 14.034 0.896394C15.0048 1.29042 15.8329 1.95702 16.4148 2.81034C16.9966 3.66354 17.3065 4.66553 17.3065 5.68966C17.3065 7.06272 16.7499 8.38165 15.7558 9.35572C14.7614 10.3301 13.4106 10.8793 12 10.8793ZM12 1.77586C11.2143 1.77586 10.4454 2.00412 9.79058 2.43288C9.13561 2.86171 8.62357 3.47229 8.32078 4.18858C8.01794 4.90498 7.93854 5.6939 8.09306 6.45512C8.24758 7.21628 8.62869 7.91403 9.18659 8.4607C9.74437 9.00726 10.4538 9.37837 11.2247 9.52862C11.9955 9.67886 12.7946 9.60184 13.5213 9.30688C14.248 9.01189 14.8709 8.51168 15.3098 7.86795C15.7489 7.22409 15.9839 6.46602 15.9839 5.68966C15.9839 4.64834 15.5616 3.65177 14.8134 2.91861C14.0655 2.18579 13.0533 1.77586 12 1.77586Z" fill="black" stroke="black"/>
</svg>
